<?xml version="1.0" standalone="no"?><!DOCTYPE svg PUBLIC "-//W3C//DTD SVG 1.1//EN" "http://www.w3.org/Graphics/SVG/1.1/DTD/svg11.dtd"><svg t="1774193037556" class="icon" viewBox="0 0 1024 1024" version="1.1" xmlns="http://www.w3.org/2000/svg" p-id="4781" xmlns:xlink="http://www.w3.org/1999/xlink" width="200" height="200"><path d="M806.118796 991.08869l-27.912124-70.405207c-12.497966-15.830757-22.912937 0.416599-22.912937 0.416598l-26.245728 68.322214c-6.248983 15.830757 14.164361 16.247356 16.663954 9.998372l5.832384-13.331163h29.578519l7.915378 13.747762c17.497152 10.414972 17.913751-7.498779 17.080554-8.748576z m-38.327095-23.746135H758.209927l4.999186-15.830757 4.999186-15.414158v-0.416599h0.416599v0.416599l4.999187 15.414158 4.999186 15.830757h-10.83157zM614.48332 913.601302h-23.746135c-12.081367 0.416599-12.497966 13.331164-12.497966 13.331163s-0.833198 57.490643-0.416599 68.322214c0.416599 10.83157 13.747762 9.998373 13.747762 9.998372l23.329537 0.416599c23.329536-4.582587 34.577705-8.748576 34.994304-49.991863s-35.410903-42.076485-35.410903-42.076485z m0 71.238405h-12.914565s-7.498779 0.416599-7.498779-5.415785c-0.416599-5.832384 0.416599-37.910496 0.416598-37.910496s0.416599-7.498779 7.082181-7.49878h13.331164s19.996745 0.416599 19.580146 23.329536c-0.416599 22.496338-6.665582 24.995932-19.996745 27.495525zM360.358015 991.08869L332.445891 920.683483c-12.497966-15.830757-22.912937 0.416599-22.912937 0.416598L283.287225 989.422295c-6.248983 15.830757 14.164361 16.247356 16.663955 9.998372l5.832384-13.331163h29.578519l7.915378 13.747762c17.497152 10.414972 17.497152-7.498779 17.080554-8.748576z m-38.327096-24.162734H312.449146l4.999186-15.414158 4.999186-15.414158v-0.416599h0.416599v0.416599l4.999186 15.414158 4.999187 15.414158h-10.831571z" p-id="4782"></path><path d="M682.805533 435.34581l-87.90236 84.152969-64.156224-235.794955c-5.415785-18.33035-19.163548-63.739626-30.828316-64.156224-11.664768 0-22.07974 47.075671-26.245728 63.739625l-62.07323 235.794956v0.416598L276.205045 393.269325c-30.828316-28.745321-40.826688-25.829129-40.41009 13.331163l4.999187 423.681042c0 33.744508 4.582587 32.078112 36.2441 31.661513l184.969895-2.499593c7.498779-6.248983 35.410903-30.828316 42.076485-38.327095l40.826688 38.743694h214.965012l4.582588-450.759968c-0.416599-67.489015-39.993491-14.58096-81.653377 26.245729zM324.947111 832.781123l-56.240846 0.416599-1.249796-401.601302 130.812042 125.812856-9.998373 39.576892L324.947111 832.781123z m157.47437-193.71847l-2.499593 156.641171-44.992677 36.244101-84.986168-0.833198 65.406021-249.959316 67.072417 57.907242z m16.663954-16.247356L429.096827 554.076485l69.988608-259.957689 73.3214 259.957689-73.3214 68.738812z m66.239219 209.132628l-44.992677-36.244101-2.499593-156.641171 67.072417-57.490643 65.406021 249.959316-84.986168 0.416599z m169.139138 0.833198l-56.657445-0.416599-63.323027-235.794955-9.998373-39.576892 130.812042-125.812856-0.833197 401.601302zM546.994304 87.90236c9.998373 0 17.913751 7.915378 17.913751 17.913751 0 9.581774-7.498779 17.497152-16.663954 17.913751h-95.817738c-9.998373 0-17.913751-7.915378-17.913751-17.913751s7.915378-17.913751 17.913751-17.913751h94.567941z" p-id="4783"></path><path d="M481.588283 58.740439c0-9.998373 7.915378-17.913751 17.913751-17.913751 9.581774 0 17.497152 7.498779 17.913751 16.663955v95.817738c0 9.998373-7.915378 17.913751-17.913751 17.913751s-17.913751-7.915378-17.913751-17.913751V60.406835v-1.666396z" p-id="4784"></path><path d="M901.936534 959.427177l-22.496339-29.57852s-5.832384-21.663141 15.414158-12.497965l16.663955 22.496338 16.247355-22.496338s19.996745-8.331977 17.080553 13.331163l-24.162733 28.745322v42.493083l-19.163548 0.416599 0.416599-42.909682zM457.00895 959.427177l-22.496338-29.57852s-5.832384-21.663141 15.414158-12.497965l16.663954 22.496338 16.247356-22.496338s19.996745-8.331977 17.080553 13.331163l-24.162734 28.745322v42.493083l-19.163547 0.416599 0.416598-42.909682zM105.816111 995.671277s10.83157 14.164361 17.913751-0.833197l9.998372-44.992677 13.747763 46.659072s7.498779 17.080553 17.497152 0.416599l13.747762-46.242474 8.748576 46.242474s9.165175 15.414158 17.497153-0.416599l-12.497966-72.9048s-10.414972-18.746949-20.829943 0l-14.164362 42.493083-15.414157-42.493083s-9.998373-20.829943-22.912938 0.416598L105.816111 995.671277z" p-id="4785"></path></svg>